<svg width="128" height="128" viewBox="0 0 128 128" fill="none" xmlns="http://www.w3.org/2000/svg">
<rect width="128" height="128" rx="25" fill="#8287FF"/>
<path d="M94.9724 45.3328C97.2108 45.3328 99.2886 45.8401 101.173 46.8721C101.909 47.2517 102.597 47.6943 103.239 48.1982V46.2783H110.205V74.3214C110.205 77.0043 109.649 79.447 108.502 81.6132L108.504 81.6147C107.358 83.8182 105.732 85.5597 103.639 86.8064C101.539 88.0575 99.1674 88.6672 96.5665 88.6672H57.0704V82.0543H96.5665C98.5624 82.0543 100.094 81.3578 101.294 79.9686L101.307 79.9542L101.536 79.6832C102.531 78.4471 103.105 76.9111 103.215 75.0046C102.596 75.4974 101.935 75.938 101.231 76.3234L101.219 76.3306L101.208 76.3364C99.3317 77.3191 97.2836 77.8037 95.0906 77.8037C92.3879 77.8036 89.9081 77.1963 87.6848 75.9588L87.2438 75.7022C85.0633 74.3857 83.3305 72.5851 82.0506 70.3288L81.7998 69.8719C80.4934 67.3897 79.8597 64.5895 79.8597 61.5091C79.8598 58.4733 80.4721 55.7162 81.7364 53.2747L81.7407 53.266L81.99 52.8091C83.2639 50.5589 84.9738 48.7595 87.1155 47.4415L87.1256 47.4343L87.5667 47.1791C89.79 45.9415 92.2697 45.3329 94.9724 45.3328ZM90.569 71.5828C90.6194 71.6105 90.671 71.6355 90.7218 71.6621C90.5763 71.5859 90.4313 71.5077 90.2894 71.4228L90.569 71.5828ZM94.9724 51.9457C93.5861 51.9458 92.3639 52.2523 91.2753 52.8509L90.8169 53.1248C89.6043 53.9113 88.6348 55.0174 87.9155 56.4903L87.9097 56.5019C87.2001 57.9211 86.8259 59.5787 86.8258 61.5091C86.8258 63.4828 87.2013 65.1851 87.9155 66.6476L88.1965 67.1823C88.8806 68.3918 89.7557 69.3248 90.8169 70.0132L91.2753 70.287C92.3638 70.8855 93.5862 71.1921 94.9724 71.1922C96.6028 71.1922 97.9923 70.789 99.1883 70.0132L99.2028 70.0031L99.6582 69.6932C100.693 68.9335 101.524 67.928 102.149 66.6476L102.401 66.0883C102.953 64.7575 103.239 63.2571 103.239 61.5682C103.239 59.8798 102.952 58.3802 102.401 57.0496L102.149 56.4903C101.434 55.0274 100.452 53.9236 99.2028 53.1348L99.1883 53.1248C97.9923 52.349 96.6028 51.9457 94.9724 51.9457ZM81.3357 61.5091L81.3414 62.0453C81.3595 62.7403 81.4137 63.4162 81.5029 64.0733C81.3911 63.2484 81.3357 62.3936 81.3357 61.5091ZM104.694 62.3552C104.69 62.4431 104.681 62.5304 104.676 62.6175C104.699 62.2737 104.715 61.9242 104.715 61.5682L104.694 62.3552ZM86.2983 56.473C86.2805 56.5152 86.2665 56.5589 86.2493 56.6013C86.3105 56.451 86.3719 56.3012 86.4395 56.1545L86.2983 56.473ZM89.4822 52.2585C89.4272 52.2999 89.3733 52.3427 89.3194 52.3853C89.4579 52.2759 89.5994 52.1698 89.7446 52.0682L89.4822 52.2585Z" fill="url(#paint0_linear_631_8414)"/>
<path d="M62.6519 45.3328C64.8904 45.3328 66.9681 45.8401 68.8527 46.8721C69.5889 47.2517 70.2764 47.6943 70.9181 48.1982V46.2783H77.8842V74.3214C77.8842 77.0043 77.3288 79.447 76.182 81.6132L76.1834 81.6147C75.0376 83.8182 73.4117 85.5597 71.3188 86.8064C69.2188 88.0575 66.8469 88.6672 64.2461 88.6672H24.75V82.0543H64.2461C66.242 82.0543 67.7739 81.3578 68.9737 79.9686L68.9867 79.9542L69.2159 79.6832C70.2107 78.4471 70.785 76.9111 70.8951 75.0046C70.2754 75.4974 69.6141 75.938 68.9103 76.3234L68.8988 76.3306L68.8873 76.3364C67.0113 77.3191 64.9632 77.8037 62.7701 77.8037C60.0675 77.8036 57.5877 77.1963 55.3644 75.9588L54.9234 75.7022C52.7429 74.3857 51.01 72.5851 49.7302 70.3288L49.4794 69.8719C48.173 67.3897 47.5393 64.5895 47.5393 61.5091C47.5394 58.4733 48.1517 55.7162 49.4159 53.2747L49.4203 53.266L49.6696 52.8091C50.9435 50.5589 52.6534 48.7595 54.7951 47.4415L54.8052 47.4343L55.2462 47.1791C57.4696 45.9415 59.9493 45.3329 62.6519 45.3328ZM58.2486 71.5828C58.2989 71.6105 58.3506 71.6355 58.4014 71.6621C58.2558 71.5859 58.1109 71.5077 57.969 71.4228L58.2486 71.5828ZM62.6519 51.9457C61.2657 51.9458 60.0434 52.2523 58.9549 52.8509L58.4965 53.1248C57.2839 53.9113 56.3144 55.0174 55.595 56.4903L55.5893 56.5019C54.8797 57.9211 54.5055 59.5787 54.5054 61.5091C54.5054 63.4828 54.8808 65.1851 55.595 66.6476L55.8761 67.1823C56.5602 68.3918 57.4353 69.3248 58.4965 70.0132L58.9549 70.287C60.0434 70.8855 61.2658 71.1921 62.6519 71.1922C64.2823 71.1922 65.6719 70.789 66.8679 70.0132L66.8823 70.0031L67.3378 69.6932C68.3725 68.9335 69.2032 67.928 69.8285 66.6476L70.0807 66.0883C70.6321 64.7575 70.9181 63.2571 70.9181 61.5682C70.9181 59.8798 70.6319 58.3802 70.0807 57.0496L69.8285 56.4903C69.114 55.0274 68.1312 53.9236 66.8823 53.1348L66.8679 53.1248C65.6719 52.349 64.2823 51.9457 62.6519 51.9457ZM49.0152 61.5091L49.021 62.0453C49.0391 62.7403 49.0933 63.4162 49.1824 64.0733C49.0707 63.2484 49.0152 62.3936 49.0152 61.5091ZM72.3739 62.3552C72.3695 62.4431 72.361 62.5304 72.3552 62.6175C72.3784 62.2737 72.3941 61.9242 72.3941 61.5682L72.3739 62.3552ZM53.9778 56.473C53.9601 56.5152 53.9461 56.5589 53.9288 56.6013C53.9901 56.451 54.0515 56.3012 54.1191 56.1545L53.9778 56.473ZM57.1618 52.2585C57.1068 52.2999 57.0529 52.3427 56.9989 52.3853C57.1375 52.2759 57.2789 52.1698 57.4241 52.0682L57.1618 52.2585Z" fill="url(#paint1_linear_631_8414)"/>
<path d="M26.5516 46.2783L26.9235 47.2066L34.6751 66.6145L42.4859 46.2783H49.4159L36.2488 81.042C34.5105 85.6315 30.1144 88.6673 25.2067 88.6673H17.7954V82.0557H24.6882C27.1258 82.0557 29.3128 80.5576 30.1933 78.2846L30.4761 77.5548C30.882 76.5071 30.8744 75.3443 30.4549 74.302L19.1762 46.2783H26.5516Z" fill="white"/>
<defs>
<linearGradient id="paint0_linear_631_8414" x1="79.7518" y1="88.6672" x2="58.5463" y2="88.6672" gradientUnits="userSpaceOnUse">
<stop stop-color="white"/>
<stop offset="1" stop-color="#4E5199" stop-opacity="0"/>
</linearGradient>
<linearGradient id="paint1_linear_631_8414" x1="46.8985" y1="88.6672" x2="26.2259" y2="88.6672" gradientUnits="userSpaceOnUse">
<stop stop-color="white"/>
<stop offset="1" stop-color="#4E5199" stop-opacity="0"/>
</linearGradient>
</defs>
</svg>
